<?xml version="1.0" encoding="UTF-8"?>
<svg id="Layer_1" data-name="Layer 1" xmlns="http://www.w3.org/2000/svg" viewBox="0 0 740.56 104.71">
  <defs>
    <style>
      .cls-1 {
        fill: #fff;
      }
    </style>
  </defs>
  <path class="cls-1" d="m0,52.42C0,24.07,20.45,0,54.49,0c17.08,0,31.97,5.95,45.04,18.77-.65,4.79-3.62,8.67-8.8,8.67-4.66,0-7.12-3.5-9.32-7.51-5.69-8.8-15.53-17.34-27.44-17.34-20.58,0-34.43,19.8-34.43,44.78,0,30.67,18.77,48.54,41.55,48.54,19.8,0,35.85-13.85,39.6-36.89h2.2c-4.01,29.77-26.01,45.69-50.6,45.69C20.06,104.71,0,80.5,0,52.42Z"/>
  <path class="cls-1" d="m92.28,85.42v-32.36c0-6.86-.26-11.65-1.04-17.08h18.25c-.78,5.44-1.04,10.22-1.04,17.08v3.49c5.31-16.31,14.75-22.39,28.09-22.39.78,1.68,1.29,3.37,1.29,4.92,0,4.27-3.11,8.15-8.41,8.15-8.02,0-16.95,1.29-20.97,13.72v24.46c0,6.86.26,11.65,1.04,17.08h-18.25c.78-5.44,1.04-10.22,1.04-17.08Z"/>
  <path class="cls-1" d="m130.59,68.72c0-21.23,16.18-34.82,34.17-34.82,16.31,0,30.41,11,30.93,28.34h-48.28v.13c0,17.34,9.06,33.91,24.46,33.91,11,0,20.32-8.15,23.68-20.71l1.94.39c-4.66,18.38-18.12,28.73-33,28.73-17.99,0-33.91-14.75-33.91-35.98Zm48.02-9.19c-.39-15.4-5.44-23.17-14.24-23.17-9.58,0-16.18,8.93-16.83,23.17h31.06Z"/>
  <path class="cls-1" d="m199.44,86.97c0-12.94,11.91-16.96,23.94-20.84,10.61-3.36,22-6.6,22-18.51,0-6.99-4.4-11.26-10.87-11.26-8.41,0-13.07,6.86-15.79,10.87-2.33,3.37-4.66,6.08-9.06,6.08s-6.6-2.98-6.73-9.58c9.06-5.82,20.32-9.84,30.8-9.84,16.18,0,27.05,8.28,27.05,23.68v23.56c0,10.48.65,14.11,2.98,21.36h-17.73c-.78-5.95-1.16-12.94-1.16-19.67-4.92,15.4-16.18,21.87-26.14,21.87s-19.28-6.6-19.28-17.73Zm27.83,8.8c8.02,0,17.6-7.25,17.6-24.33v-13.72c-2.59,4.66-7.9,6.34-14.62,9.06-8.67,4.01-14.75,7.77-14.75,16.18s5.57,12.81,11.78,12.81Z"/>
  <path class="cls-1" d="m270.75,83.61v-44.65h-10.22v-2.98h1.55c11.52,0,12.17-8.54,12.17-26.53h16.31c0,11.65-3.88,23.04-18.51,26.53h36.89v2.98h-22v42.97c0,8.93,3.62,14.37,9.58,14.37,7.38,0,12.17-7.38,13.85-21.1h2.07c-2.2,19.28-10.1,29.51-23.04,29.51-11.65,0-18.64-8.02-18.64-21.1Z"/>
  <path class="cls-1" d="m316.44,68.72c0-21.23,16.18-34.82,34.17-34.82,16.31,0,30.41,11,30.93,28.34h-48.28v.13c0,17.34,9.06,33.91,24.46,33.91,11,0,20.32-8.15,23.68-20.71l1.94.39c-4.66,18.38-18.12,28.73-33,28.73-17.99,0-33.91-14.75-33.91-35.98Zm48.02-9.19c-.39-15.4-5.44-23.17-14.24-23.17-9.58,0-16.18,8.93-16.83,23.17h31.06Z"/>
  <path class="cls-1" d="m392.41,85.42V18.64c0-7.12-.26-11.78-1.04-17.08h61.09l-3.37,8.28c-13.46-4.92-23.43-5.82-34.69-5.82h-2.98v46.33h7.51c8.02,0,14.75-.39,22.13-1.29v5.44c-7.38-.91-14.11-1.29-22.13-1.29h-7.51v32.23c0,7.12.26,11.78,1.04,17.08h-21.1c.78-5.31,1.04-9.97,1.04-17.08Z"/>
  <path class="cls-1" d="m446.12,82.57v-29.51c0-6.86-.26-11.65-1.04-17.08h18.38c-.78,5.44-1.04,10.22-1.04,17.08v29.64c0,9.71,3.75,14.63,10.61,14.63,6.34,0,12.68-4.53,16.83-11.65v-32.62c0-6.86-.26-11.65-1.04-17.08h18.25c-.78,5.44-1.04,10.22-1.04,17.08v32.36c0,6.86.26,11.65,1.04,17.08h-18.25c.65-4.27.91-8.15,1.04-12.81-5.7,8.93-15.4,14.88-25.37,14.88-11.39,0-18.38-7.77-18.38-22Z"/>
  <path class="cls-1" d="m520.54,83.61v-44.65h-10.22v-2.98h1.55c11.52,0,12.17-8.54,12.17-26.53h16.31c0,11.65-3.88,23.04-18.51,26.53h36.89v2.98h-22v42.97c0,8.93,3.62,14.37,9.58,14.37,7.38,0,12.17-7.38,13.85-21.1h2.07c-2.2,19.28-10.09,29.51-23.04,29.51-11.65,0-18.64-8.02-18.64-21.1Z"/>
  <path class="cls-1" d="m567,82.57v-29.51c0-6.86-.26-11.65-1.04-17.08h18.38c-.78,5.44-1.04,10.22-1.04,17.08v29.64c0,9.71,3.75,14.63,10.61,14.63,6.34,0,12.68-4.53,16.83-11.65v-32.62c0-6.86-.26-11.65-1.04-17.08h18.25c-.78,5.44-1.04,10.22-1.04,17.08v32.36c0,6.86.26,11.65,1.04,17.08h-18.25c.65-4.27.91-8.15,1.04-12.81-5.7,8.93-15.4,14.88-25.37,14.88-11.39,0-18.38-7.77-18.38-22Z"/>
  <path class="cls-1" d="m632.75,85.42v-32.36c0-6.86-.26-11.65-1.04-17.08h18.25c-.78,5.44-1.04,10.22-1.04,17.08v3.49c5.31-16.31,14.75-22.39,28.08-22.39.78,1.68,1.29,3.37,1.29,4.92,0,4.27-3.11,8.15-8.41,8.15-8.02,0-16.96,1.29-20.97,13.72v24.46c0,6.86.26,11.65,1.04,17.08h-18.25c.78-5.44,1.04-10.22,1.04-17.08Z"/>
  <path class="cls-1" d="m673.65,68.72c0-21.23,16.18-34.82,34.17-34.82,16.31,0,30.42,11,30.93,28.34h-48.28v.13c0,17.34,9.06,33.91,24.46,33.91,11,0,20.32-8.15,23.68-20.71l1.94.39c-4.66,18.38-18.12,28.73-33,28.73-17.99,0-33.91-14.75-33.91-35.98Zm48.02-9.19c-.39-15.4-5.44-23.17-14.24-23.17-9.58,0-16.18,8.93-16.83,23.17h31.06Z"/>
</svg>